<svg width="29" height="25" viewBox="0 0 29 25" fill="none" xmlns="http://www.w3.org/2000/svg">
<g id="Icon/Outline/dots-horizontal">
<path id="Icon" d="M6.26469 12.4507H6.27632M14.3998 12.4507H14.4114M22.5349 12.4507H22.5465M7.42685 12.4507C7.42685 12.9915 6.90654 13.4298 6.26469 13.4298C5.62285 13.4298 5.10254 12.9915 5.10254 12.4507C5.10254 11.91 5.62285 11.4716 6.26469 11.4716C6.90654 11.4716 7.42685 11.91 7.42685 12.4507ZM15.5619 12.4507C15.5619 12.9915 15.0416 13.4298 14.3998 13.4298C13.7579 13.4298 13.2376 12.9915 13.2376 12.4507C13.2376 11.91 13.7579 11.4716 14.3998 11.4716C15.0416 11.4716 15.5619 11.91 15.5619 12.4507ZM23.697 12.4507C23.697 12.9915 23.1767 13.4298 22.5349 13.4298C21.893 13.4298 21.3727 12.9915 21.3727 12.4507C21.3727 11.91 21.893 11.4716 22.5349 11.4716C23.1767 11.4716 23.697 11.91 23.697 12.4507Z" stroke="#A1A1AA" stroke-width="2" stroke-linecap="round" stroke-linejoin="round"/>
</g>
</svg>
